<?xml version="1.0" encoding="UTF-8" standalone="no"?>
<!DOCTYPE svg PUBLIC "-//W3C//DTD SVG 1.1//EN"
 "http://www.w3.org/Graphics/SVG/1.1/DTD/svg11.dtd">
<!-- Generated by graphviz version 2.47.0 (20210316.0004)
 -->
<!-- Title: dependencies Pages: 1 -->
<svg width="520pt" height="284pt"
 viewBox="0.00 0.00 520.00 284.00" xmlns="http://www.w3.org/2000/svg" xmlns:xlink="http://www.w3.org/1999/xlink">
<g id="graph0" class="graph" transform="scale(1 1) rotate(0) translate(4 280)">
<title>dependencies</title>
<polygon fill="white" stroke="transparent" points="-4,4 -4,-280 516,-280 516,4 -4,4"/>
<text text-anchor="start" x="235.01" y="-42.4" font-family="Times-12" font-weight="bold" font-size="14.00">Legend</text>
<polygon fill="#ffffb3" stroke="transparent" points="22,-10 22,-30 42,-30 42,-10 22,-10"/>
<text text-anchor="start" x="45.63" y="-15.4" font-family="Times-12" font-size="14.00"> &#160;Declarations</text>
<polygon fill="#8dd3c7" stroke="transparent" points="135,-10 135,-30 155,-30 155,-10 135,-10"/>
<text text-anchor="start" x="158.73" y="-15.4" font-family="Times-12" font-size="14.00"> &#160;Module</text>
<polygon fill="#80b1d3" stroke="transparent" points="221,-10 221,-30 241,-30 241,-10 221,-10"/>
<text text-anchor="start" x="244.78" y="-15.4" font-family="Times-12" font-size="14.00"> &#160;Bootstrap</text>
<polygon fill="#fdb462" stroke="transparent" points="318,-10 318,-30 338,-30 338,-10 318,-10"/>
<text text-anchor="start" x="341.67" y="-15.4" font-family="Times-12" font-size="14.00"> &#160;Providers</text>
<polygon fill="#fb8072" stroke="transparent" points="414,-10 414,-30 434,-30 434,-10 414,-10"/>
<text text-anchor="start" x="437.73" y="-15.4" font-family="Times-12" font-size="14.00"> &#160;Exports</text>
<g id="clust1" class="cluster">
<title>cluster_UserModule</title>
<polygon fill="none" stroke="black" stroke-dasharray="1,5" points="8,-70 8,-268 504,-268 504,-70 8,-70"/>
</g>
<g id="clust6" class="cluster">
<title>cluster_UserModule_providers</title>
<polygon fill="none" stroke="black" points="16,-78 16,-130 496,-130 496,-78 16,-78"/>
</g>
<g id="clust4" class="cluster">
<title>cluster_UserModule_exports</title>
<polygon fill="none" stroke="black" points="183,-208 183,-260 287,-260 287,-208 183,-208"/>
</g>
<!-- UserService  -->
<g id="node1" class="node">
<title>UserService </title>
<polygon fill="#fb8072" stroke="black" points="278.9,-252 191.1,-252 191.1,-216 278.9,-216 278.9,-252"/>
<text text-anchor="middle" x="235" y="-229.8" font-family="Times,serif" font-size="14.00">UserService </text>
</g>
<!-- UserModule -->
<g id="node2" class="node">
<title>UserModule</title>
<polygon fill="#8dd3c7" stroke="black" points="277.98,-187 274.98,-191 253.98,-191 250.98,-187 192.02,-187 192.02,-151 277.98,-151 277.98,-187"/>
<text text-anchor="middle" x="235" y="-164.8" font-family="Times,serif" font-size="14.00">UserModule</text>
</g>
<!-- UserModule&#45;&gt;UserService  -->
<g id="edge1" class="edge">
<title>UserModule&#45;&gt;UserService </title>
<path fill="none" stroke="black" stroke-dasharray="5,2" d="M235,-187.11C235,-187.11 235,-205.99 235,-205.99"/>
<polygon fill="black" stroke="black" points="231.5,-205.99 235,-215.99 238.5,-205.99 231.5,-205.99"/>
</g>
<!-- ExceptionService -->
<g id="node3" class="node">
<title>ExceptionService</title>
<ellipse fill="#fdb462" stroke="black" cx="409" cy="-104" rx="79.29" ry="18"/>
<text text-anchor="middle" x="409" y="-99.8" font-family="Times,serif" font-size="14.00">ExceptionService</text>
</g>
<!-- ExceptionService&#45;&gt;UserModule -->
<g id="edge2" class="edge">
<title>ExceptionService&#45;&gt;UserModule</title>
<path fill="none" stroke="black" d="M409,-122.11C409,-141.34 409,-169 409,-169 409,-169 288.01,-169 288.01,-169"/>
<polygon fill="black" stroke="black" points="288.01,-165.5 278.01,-169 288.01,-172.5 288.01,-165.5"/>
</g>
<!-- ResponseService -->
<g id="node4" class="node">
<title>ResponseService</title>
<ellipse fill="#fdb462" stroke="black" cx="235" cy="-104" rx="77" ry="18"/>
<text text-anchor="middle" x="235" y="-99.8" font-family="Times,serif" font-size="14.00">ResponseService</text>
</g>
<!-- ResponseService&#45;&gt;UserModule -->
<g id="edge3" class="edge">
<title>ResponseService&#45;&gt;UserModule</title>
<path fill="none" stroke="black" d="M235,-122.11C235,-122.11 235,-140.99 235,-140.99"/>
<polygon fill="black" stroke="black" points="231.5,-140.99 235,-150.99 238.5,-140.99 231.5,-140.99"/>
</g>
<!-- UserService -->
<g id="node5" class="node">
<title>UserService</title>
<ellipse fill="#fdb462" stroke="black" cx="82" cy="-104" rx="58.44" ry="18"/>
<text text-anchor="middle" x="82" y="-99.8" font-family="Times,serif" font-size="14.00">UserService</text>
</g>
<!-- UserService&#45;&gt;UserModule -->
<g id="edge4" class="edge">
<title>UserService&#45;&gt;UserModule</title>
<path fill="none" stroke="black" d="M82,-122.11C82,-141.34 82,-169 82,-169 82,-169 181.97,-169 181.97,-169"/>
<polygon fill="black" stroke="black" points="181.97,-172.5 191.97,-169 181.97,-165.5 181.97,-172.5"/>
</g>
</g>
</svg>
