<?xml version="1.0" encoding="UTF-8" standalone="no"?>
<!DOCTYPE svg PUBLIC "-//W3C//DTD SVG 1.1//EN"
 "http://www.w3.org/Graphics/SVG/1.1/DTD/svg11.dtd">
<!-- Generated by graphviz version 2.47.0 (20210316.0004)
 -->
<!-- Title: dependencies Pages: 1 -->
<svg width="504pt" height="284pt"
 viewBox="0.00 0.00 504.00 284.00" xmlns="http://www.w3.org/2000/svg" xmlns:xlink="http://www.w3.org/1999/xlink">
<g id="graph0" class="graph" transform="scale(1 1) rotate(0) translate(4 280)">
<title>dependencies</title>
<polygon fill="white" stroke="transparent" points="-4,4 -4,-280 500,-280 500,4 -4,4"/>
<text text-anchor="start" x="227.01" y="-42.4" font-family="Times-12" font-weight="bold" font-size="14.00">Legend</text>
<polygon fill="#ffffb3" stroke="transparent" points="14,-10 14,-30 34,-30 34,-10 14,-10"/>
<text text-anchor="start" x="37.63" y="-15.4" font-family="Times-12" font-size="14.00"> &#160;Declarations</text>
<polygon fill="#8dd3c7" stroke="transparent" points="127,-10 127,-30 147,-30 147,-10 127,-10"/>
<text text-anchor="start" x="150.73" y="-15.4" font-family="Times-12" font-size="14.00"> &#160;Module</text>
<polygon fill="#80b1d3" stroke="transparent" points="213,-10 213,-30 233,-30 233,-10 213,-10"/>
<text text-anchor="start" x="236.78" y="-15.4" font-family="Times-12" font-size="14.00"> &#160;Bootstrap</text>
<polygon fill="#fdb462" stroke="transparent" points="310,-10 310,-30 330,-30 330,-10 310,-10"/>
<text text-anchor="start" x="333.67" y="-15.4" font-family="Times-12" font-size="14.00"> &#160;Providers</text>
<polygon fill="#fb8072" stroke="transparent" points="406,-10 406,-30 426,-30 426,-10 406,-10"/>
<text text-anchor="start" x="429.73" y="-15.4" font-family="Times-12" font-size="14.00"> &#160;Exports</text>
<g id="clust1" class="cluster">
<title>cluster_DatabaseModule</title>
<polygon fill="none" stroke="black" stroke-dasharray="1,5" points="82,-70 82,-268 414,-268 414,-70 82,-70"/>
</g>
<g id="clust4" class="cluster">
<title>cluster_DatabaseModule_exports</title>
<polygon fill="none" stroke="black" points="179,-208 179,-260 307,-260 307,-208 179,-208"/>
</g>
<g id="clust6" class="cluster">
<title>cluster_DatabaseModule_providers</title>
<polygon fill="none" stroke="black" points="90,-78 90,-130 406,-130 406,-78 90,-78"/>
</g>
<!-- DatabaseService  -->
<g id="node1" class="node">
<title>DatabaseService </title>
<polygon fill="#fb8072" stroke="black" points="299.28,-252 186.72,-252 186.72,-216 299.28,-216 299.28,-252"/>
<text text-anchor="middle" x="243" y="-229.8" font-family="Times,serif" font-size="14.00">DatabaseService </text>
</g>
<!-- DatabaseModule -->
<g id="node2" class="node">
<title>DatabaseModule</title>
<polygon fill="#8dd3c7" stroke="black" points="298.35,-187 295.35,-191 274.35,-191 271.35,-187 187.65,-187 187.65,-151 298.35,-151 298.35,-187"/>
<text text-anchor="middle" x="243" y="-164.8" font-family="Times,serif" font-size="14.00">DatabaseModule</text>
</g>
<!-- DatabaseModule&#45;&gt;DatabaseService  -->
<g id="edge1" class="edge">
<title>DatabaseModule&#45;&gt;DatabaseService </title>
<path fill="none" stroke="black" stroke-dasharray="5,2" d="M243,-187.11C243,-187.11 243,-205.99 243,-205.99"/>
<polygon fill="black" stroke="black" points="239.5,-205.99 243,-215.99 246.5,-205.99 239.5,-205.99"/>
</g>
<!-- DatabaseService -->
<g id="node3" class="node">
<title>DatabaseService</title>
<ellipse fill="#fdb462" stroke="black" cx="323" cy="-104" rx="75.26" ry="18"/>
<text text-anchor="middle" x="323" y="-99.8" font-family="Times,serif" font-size="14.00">DatabaseService</text>
</g>
<!-- DatabaseService&#45;&gt;DatabaseModule -->
<g id="edge2" class="edge">
<title>DatabaseService&#45;&gt;DatabaseModule</title>
<path fill="none" stroke="black" d="M273.02,-117.78C273.02,-117.78 273.02,-140.55 273.02,-140.55"/>
<polygon fill="black" stroke="black" points="269.52,-140.55 273.02,-150.55 276.52,-140.55 269.52,-140.55"/>
</g>
<!-- MongoConfig -->
<g id="node4" class="node">
<title>MongoConfig</title>
<ellipse fill="#fdb462" stroke="black" cx="164" cy="-104" rx="65.52" ry="18"/>
<text text-anchor="middle" x="164" y="-99.8" font-family="Times,serif" font-size="14.00">MongoConfig</text>
</g>
<!-- MongoConfig&#45;&gt;DatabaseModule -->
<g id="edge3" class="edge">
<title>MongoConfig&#45;&gt;DatabaseModule</title>
<path fill="none" stroke="black" d="M208.67,-117.47C208.67,-117.47 208.67,-140.86 208.67,-140.86"/>
<polygon fill="black" stroke="black" points="205.17,-140.86 208.67,-150.86 212.17,-140.86 205.17,-140.86"/>
</g>
</g>
</svg>
