<?xml version="1.0" encoding="UTF-8" standalone="no"?>
<!DOCTYPE svg PUBLIC "-//W3C//DTD SVG 1.1//EN"
 "http://www.w3.org/Graphics/SVG/1.1/DTD/svg11.dtd">
<!-- Generated by graphviz version 2.47.0 (20210316.0004)
 -->
<!-- Title: dependencies Pages: 1 -->
<svg width="700pt" height="284pt"
 viewBox="0.00 0.00 700.00 284.00" xmlns="http://www.w3.org/2000/svg" xmlns:xlink="http://www.w3.org/1999/xlink">
<g id="graph0" class="graph" transform="scale(1 1) rotate(0) translate(4 280)">
<title>dependencies</title>
<polygon fill="white" stroke="transparent" points="-4,4 -4,-280 696,-280 696,4 -4,4"/>
<text text-anchor="start" x="325.01" y="-42.4" font-family="Times-12" font-weight="bold" font-size="14.00">Legend</text>
<polygon fill="#ffffb3" stroke="transparent" points="112,-10 112,-30 132,-30 132,-10 112,-10"/>
<text text-anchor="start" x="135.63" y="-15.4" font-family="Times-12" font-size="14.00"> &#160;Declarations</text>
<polygon fill="#8dd3c7" stroke="transparent" points="225,-10 225,-30 245,-30 245,-10 225,-10"/>
<text text-anchor="start" x="248.73" y="-15.4" font-family="Times-12" font-size="14.00"> &#160;Module</text>
<polygon fill="#80b1d3" stroke="transparent" points="311,-10 311,-30 331,-30 331,-10 311,-10"/>
<text text-anchor="start" x="334.78" y="-15.4" font-family="Times-12" font-size="14.00"> &#160;Bootstrap</text>
<polygon fill="#fdb462" stroke="transparent" points="408,-10 408,-30 428,-30 428,-10 408,-10"/>
<text text-anchor="start" x="431.67" y="-15.4" font-family="Times-12" font-size="14.00"> &#160;Providers</text>
<polygon fill="#fb8072" stroke="transparent" points="504,-10 504,-30 524,-30 524,-10 504,-10"/>
<text text-anchor="start" x="527.73" y="-15.4" font-family="Times-12" font-size="14.00"> &#160;Exports</text>
<g id="clust1" class="cluster">
<title>cluster_ValidationModule</title>
<polygon fill="none" stroke="black" stroke-dasharray="1,5" points="8,-70 8,-268 684,-268 684,-70 8,-70"/>
</g>
<g id="clust3" class="cluster">
<title>cluster_ValidationModule_imports</title>
<polygon fill="none" stroke="black" points="550,-78 550,-130 676,-130 676,-78 550,-78"/>
</g>
<g id="clust4" class="cluster">
<title>cluster_ValidationModule_exports</title>
<polygon fill="none" stroke="black" points="164,-208 164,-260 570,-260 570,-208 164,-208"/>
</g>
<g id="clust6" class="cluster">
<title>cluster_ValidationModule_providers</title>
<polygon fill="none" stroke="black" points="16,-78 16,-130 542,-130 542,-78 16,-78"/>
</g>
<!-- DatabaseModule -->
<g id="node1" class="node">
<title>DatabaseModule</title>
<polygon fill="#8dd3c7" stroke="black" points="668.35,-122 665.35,-126 644.35,-126 641.35,-122 557.65,-122 557.65,-86 668.35,-86 668.35,-122"/>
<text text-anchor="middle" x="613" y="-99.8" font-family="Times,serif" font-size="14.00">DatabaseModule</text>
</g>
<!-- ValidationModule -->
<g id="node2" class="node">
<title>ValidationModule</title>
<polygon fill="#8dd3c7" stroke="black" points="427.15,-187 424.15,-191 403.15,-191 400.15,-187 308.85,-187 308.85,-151 427.15,-151 427.15,-187"/>
<text text-anchor="middle" x="368" y="-164.8" font-family="Times,serif" font-size="14.00">ValidationModule</text>
</g>
<!-- DatabaseModule&#45;&gt;ValidationModule -->
<g id="edge1" class="edge">
<title>DatabaseModule&#45;&gt;ValidationModule</title>
<path fill="none" stroke="black" d="M615.27,-122.02C615.27,-139.37 615.27,-163 615.27,-163 615.27,-163 437.23,-163 437.23,-163"/>
<polygon fill="black" stroke="black" points="437.23,-159.5 427.23,-163 437.23,-166.5 437.23,-159.5"/>
</g>
<!-- ExceptionService  -->
<g id="node3" class="node">
<title>ExceptionService </title>
<polygon fill="#fb8072" stroke="black" points="562.24,-252 443.76,-252 443.76,-216 562.24,-216 562.24,-252"/>
<text text-anchor="middle" x="503" y="-229.8" font-family="Times,serif" font-size="14.00">ExceptionService </text>
</g>
<!-- ValidationModule&#45;&gt;ExceptionService  -->
<g id="edge2" class="edge">
<title>ValidationModule&#45;&gt;ExceptionService </title>
<path fill="none" stroke="black" stroke-dasharray="5,2" d="M427.44,-175C458.05,-175 489.01,-175 489.01,-175 489.01,-175 489.01,-205.98 489.01,-205.98"/>
<polygon fill="black" stroke="black" points="485.51,-205.98 489.01,-215.98 492.51,-205.98 485.51,-205.98"/>
</g>
<!-- ResponseService  -->
<g id="node4" class="node">
<title>ResponseService </title>
<polygon fill="#fb8072" stroke="black" points="425.63,-252 310.37,-252 310.37,-216 425.63,-216 425.63,-252"/>
<text text-anchor="middle" x="368" y="-229.8" font-family="Times,serif" font-size="14.00">ResponseService </text>
</g>
<!-- ValidationModule&#45;&gt;ResponseService  -->
<g id="edge3" class="edge">
<title>ValidationModule&#45;&gt;ResponseService </title>
<path fill="none" stroke="black" stroke-dasharray="5,2" d="M368,-187.11C368,-187.11 368,-205.99 368,-205.99"/>
<polygon fill="black" stroke="black" points="364.5,-205.99 368,-215.99 371.5,-205.99 364.5,-205.99"/>
</g>
<!-- ValidationService  -->
<g id="node5" class="node">
<title>ValidationService </title>
<polygon fill="#fb8072" stroke="black" points="292.08,-252 171.92,-252 171.92,-216 292.08,-216 292.08,-252"/>
<text text-anchor="middle" x="232" y="-229.8" font-family="Times,serif" font-size="14.00">ValidationService </text>
</g>
<!-- ValidationModule&#45;&gt;ValidationService  -->
<g id="edge4" class="edge">
<title>ValidationModule&#45;&gt;ValidationService </title>
<path fill="none" stroke="black" stroke-dasharray="5,2" d="M308.77,-175C278.58,-175 248.14,-175 248.14,-175 248.14,-175 248.14,-205.98 248.14,-205.98"/>
<polygon fill="black" stroke="black" points="244.64,-205.98 248.14,-215.98 251.64,-205.98 244.64,-205.98"/>
</g>
<!-- ExceptionService -->
<g id="node6" class="node">
<title>ExceptionService</title>
<ellipse fill="#fdb462" stroke="black" cx="455" cy="-104" rx="79.29" ry="18"/>
<text text-anchor="middle" x="455" y="-99.8" font-family="Times,serif" font-size="14.00">ExceptionService</text>
</g>
<!-- ExceptionService&#45;&gt;ValidationModule -->
<g id="edge5" class="edge">
<title>ExceptionService&#45;&gt;ValidationModule</title>
<path fill="none" stroke="black" d="M401.59,-117.47C401.59,-117.47 401.59,-140.86 401.59,-140.86"/>
<polygon fill="black" stroke="black" points="398.09,-140.86 401.59,-150.86 405.09,-140.86 398.09,-140.86"/>
</g>
<!-- ResponseService -->
<g id="node7" class="node">
<title>ResponseService</title>
<ellipse fill="#fdb462" stroke="black" cx="281" cy="-104" rx="77" ry="18"/>
<text text-anchor="middle" x="281" y="-99.8" font-family="Times,serif" font-size="14.00">ResponseService</text>
</g>
<!-- ResponseService&#45;&gt;ValidationModule -->
<g id="edge6" class="edge">
<title>ResponseService&#45;&gt;ValidationModule</title>
<path fill="none" stroke="black" d="M333.34,-117.47C333.34,-117.47 333.34,-140.86 333.34,-140.86"/>
<polygon fill="black" stroke="black" points="329.84,-140.86 333.34,-150.86 336.84,-140.86 329.84,-140.86"/>
</g>
<!-- ValidationService -->
<g id="node8" class="node">
<title>ValidationService</title>
<ellipse fill="#fdb462" stroke="black" cx="105" cy="-104" rx="80.51" ry="18"/>
<text text-anchor="middle" x="105" y="-99.8" font-family="Times,serif" font-size="14.00">ValidationService</text>
</g>
<!-- ValidationService&#45;&gt;ValidationModule -->
<g id="edge7" class="edge">
<title>ValidationService&#45;&gt;ValidationModule</title>
<path fill="none" stroke="black" d="M178.73,-111.71C178.73,-127.71 178.73,-163 178.73,-163 178.73,-163 298.63,-163 298.63,-163"/>
<polygon fill="black" stroke="black" points="298.63,-166.5 308.63,-163 298.63,-159.5 298.63,-166.5"/>
</g>
</g>
</svg>
