<?xml version="1.0" encoding="UTF-8" standalone="no"?>
<!DOCTYPE svg PUBLIC "-//W3C//DTD SVG 1.1//EN"
 "http://www.w3.org/Graphics/SVG/1.1/DTD/svg11.dtd">
<!-- Generated by graphviz version 2.47.0 (20210316.0004)
 -->
<!-- Title: dependencies Pages: 1 -->
<svg width="668pt" height="284pt"
 viewBox="0.00 0.00 668.00 284.00" xmlns="http://www.w3.org/2000/svg" xmlns:xlink="http://www.w3.org/1999/xlink">
<g id="graph0" class="graph" transform="scale(1 1) rotate(0) translate(4 280)">
<title>dependencies</title>
<polygon fill="white" stroke="transparent" points="-4,4 -4,-280 664,-280 664,4 -4,4"/>
<text text-anchor="start" x="309.01" y="-42.4" font-family="Times-12" font-weight="bold" font-size="14.00">Legend</text>
<polygon fill="#ffffb3" stroke="transparent" points="96,-10 96,-30 116,-30 116,-10 96,-10"/>
<text text-anchor="start" x="119.63" y="-15.4" font-family="Times-12" font-size="14.00"> &#160;Declarations</text>
<polygon fill="#8dd3c7" stroke="transparent" points="209,-10 209,-30 229,-30 229,-10 209,-10"/>
<text text-anchor="start" x="232.73" y="-15.4" font-family="Times-12" font-size="14.00"> &#160;Module</text>
<polygon fill="#80b1d3" stroke="transparent" points="295,-10 295,-30 315,-30 315,-10 295,-10"/>
<text text-anchor="start" x="318.78" y="-15.4" font-family="Times-12" font-size="14.00"> &#160;Bootstrap</text>
<polygon fill="#fdb462" stroke="transparent" points="392,-10 392,-30 412,-30 412,-10 392,-10"/>
<text text-anchor="start" x="415.67" y="-15.4" font-family="Times-12" font-size="14.00"> &#160;Providers</text>
<polygon fill="#fb8072" stroke="transparent" points="488,-10 488,-30 508,-30 508,-10 488,-10"/>
<text text-anchor="start" x="511.73" y="-15.4" font-family="Times-12" font-size="14.00"> &#160;Exports</text>
<g id="clust1" class="cluster">
<title>cluster_ProductModule</title>
<polygon fill="none" stroke="black" stroke-dasharray="1,5" points="8,-70 8,-268 652,-268 652,-70 8,-70"/>
</g>
<g id="clust3" class="cluster">
<title>cluster_ProductModule_imports</title>
<polygon fill="none" stroke="black" points="528,-78 528,-130 644,-130 644,-78 528,-78"/>
</g>
<g id="clust4" class="cluster">
<title>cluster_ProductModule_exports</title>
<polygon fill="none" stroke="black" points="288,-208 288,-260 410,-260 410,-208 288,-208"/>
</g>
<g id="clust6" class="cluster">
<title>cluster_ProductModule_providers</title>
<polygon fill="none" stroke="black" points="16,-78 16,-130 520,-130 520,-78 16,-78"/>
</g>
<!-- UploadModule -->
<g id="node1" class="node">
<title>UploadModule</title>
<polygon fill="#8dd3c7" stroke="black" points="636.26,-122 633.26,-126 612.26,-126 609.26,-122 535.74,-122 535.74,-86 636.26,-86 636.26,-122"/>
<text text-anchor="middle" x="586" y="-99.8" font-family="Times,serif" font-size="14.00">UploadModule</text>
</g>
<!-- ProductModule -->
<g id="node2" class="node">
<title>ProductModule</title>
<polygon fill="#8dd3c7" stroke="black" points="400.6,-187 397.6,-191 376.6,-191 373.6,-187 297.4,-187 297.4,-151 400.6,-151 400.6,-187"/>
<text text-anchor="middle" x="349" y="-164.8" font-family="Times,serif" font-size="14.00">ProductModule</text>
</g>
<!-- UploadModule&#45;&gt;ProductModule -->
<g id="edge1" class="edge">
<title>UploadModule&#45;&gt;ProductModule</title>
<path fill="none" stroke="black" d="M586,-122.11C586,-141.34 586,-169 586,-169 586,-169 410.72,-169 410.72,-169"/>
<polygon fill="black" stroke="black" points="410.72,-165.5 400.72,-169 410.72,-172.5 410.72,-165.5"/>
</g>
<!-- ProductService  -->
<g id="node3" class="node">
<title>ProductService </title>
<polygon fill="#fb8072" stroke="black" points="401.53,-252 296.47,-252 296.47,-216 401.53,-216 401.53,-252"/>
<text text-anchor="middle" x="349" y="-229.8" font-family="Times,serif" font-size="14.00">ProductService </text>
</g>
<!-- ProductModule&#45;&gt;ProductService  -->
<g id="edge2" class="edge">
<title>ProductModule&#45;&gt;ProductService </title>
<path fill="none" stroke="black" stroke-dasharray="5,2" d="M349,-187.11C349,-187.11 349,-205.99 349,-205.99"/>
<polygon fill="black" stroke="black" points="345.5,-205.99 349,-215.99 352.5,-205.99 345.5,-205.99"/>
</g>
<!-- ExceptionService -->
<g id="node4" class="node">
<title>ExceptionService</title>
<ellipse fill="#fdb462" stroke="black" cx="433" cy="-104" rx="79.29" ry="18"/>
<text text-anchor="middle" x="433" y="-99.8" font-family="Times,serif" font-size="14.00">ExceptionService</text>
</g>
<!-- ExceptionService&#45;&gt;ProductModule -->
<g id="edge3" class="edge">
<title>ExceptionService&#45;&gt;ProductModule</title>
<path fill="none" stroke="black" d="M377.2,-116.84C377.2,-116.84 377.2,-140.52 377.2,-140.52"/>
<polygon fill="black" stroke="black" points="373.7,-140.52 377.2,-150.52 380.7,-140.52 373.7,-140.52"/>
</g>
<!-- ProductService -->
<g id="node5" class="node">
<title>ProductService</title>
<ellipse fill="#fdb462" stroke="black" cx="266" cy="-104" rx="70.06" ry="18"/>
<text text-anchor="middle" x="266" y="-99.8" font-family="Times,serif" font-size="14.00">ProductService</text>
</g>
<!-- ProductService&#45;&gt;ProductModule -->
<g id="edge4" class="edge">
<title>ProductService&#45;&gt;ProductModule</title>
<path fill="none" stroke="black" d="M316.74,-116.53C316.74,-116.53 316.74,-140.85 316.74,-140.85"/>
<polygon fill="black" stroke="black" points="313.24,-140.85 316.74,-150.85 320.24,-140.85 313.24,-140.85"/>
</g>
<!-- ResponseService -->
<g id="node6" class="node">
<title>ResponseService</title>
<ellipse fill="#fdb462" stroke="black" cx="101" cy="-104" rx="77" ry="18"/>
<text text-anchor="middle" x="101" y="-99.8" font-family="Times,serif" font-size="14.00">ResponseService</text>
</g>
<!-- ResponseService&#45;&gt;ProductModule -->
<g id="edge5" class="edge">
<title>ResponseService&#45;&gt;ProductModule</title>
<path fill="none" stroke="black" d="M101,-122.11C101,-141.34 101,-169 101,-169 101,-169 287.31,-169 287.31,-169"/>
<polygon fill="black" stroke="black" points="287.31,-172.5 297.31,-169 287.31,-165.5 287.31,-172.5"/>
</g>
</g>
</svg>
