<?xml version="1.0" encoding="UTF-8" standalone="no"?>
<!DOCTYPE svg PUBLIC "-//W3C//DTD SVG 1.1//EN"
 "http://www.w3.org/Graphics/SVG/1.1/DTD/svg11.dtd">
<!-- Generated by graphviz version 2.47.0 (20210316.0004)
 -->
<!-- Title: dependencies Pages: 1 -->
<svg width="1760pt" height="371pt"
 viewBox="0.00 0.00 1760.00 371.00" xmlns="http://www.w3.org/2000/svg" xmlns:xlink="http://www.w3.org/1999/xlink">
<g id="graph0" class="graph" transform="scale(1 1) rotate(0) translate(4 367)">
<title>dependencies</title>
<polygon fill="white" stroke="transparent" points="-4,4 -4,-367 1756,-367 1756,4 -4,4"/>
<text text-anchor="start" x="855.01" y="-42.4" font-family="Times-12" font-weight="bold" font-size="14.00">Legend</text>
<polygon fill="#ffffb3" stroke="transparent" points="642,-10 642,-30 662,-30 662,-10 642,-10"/>
<text text-anchor="start" x="665.63" y="-15.4" font-family="Times-12" font-size="14.00"> &#160;Declarations</text>
<polygon fill="#8dd3c7" stroke="transparent" points="755,-10 755,-30 775,-30 775,-10 755,-10"/>
<text text-anchor="start" x="778.73" y="-15.4" font-family="Times-12" font-size="14.00"> &#160;Module</text>
<polygon fill="#80b1d3" stroke="transparent" points="841,-10 841,-30 861,-30 861,-10 841,-10"/>
<text text-anchor="start" x="864.78" y="-15.4" font-family="Times-12" font-size="14.00"> &#160;Bootstrap</text>
<polygon fill="#fdb462" stroke="transparent" points="938,-10 938,-30 958,-30 958,-10 938,-10"/>
<text text-anchor="start" x="961.67" y="-15.4" font-family="Times-12" font-size="14.00"> &#160;Providers</text>
<polygon fill="#fb8072" stroke="transparent" points="1034,-10 1034,-30 1054,-30 1054,-10 1034,-10"/>
<text text-anchor="start" x="1057.73" y="-15.4" font-family="Times-12" font-size="14.00"> &#160;Exports</text>
<g id="clust1" class="cluster">
<title>cluster_AppModule</title>
<polygon fill="none" stroke="black" stroke-dasharray="1,5" points="418,-146 418,-347 1128,-347 1128,-146 418,-146"/>
</g>
<g id="clust3" class="cluster">
<title>cluster_AppModule_imports</title>
<polygon fill="none" stroke="black" points="771,-154 771,-271 1120,-271 1120,-154 771,-154"/>
</g>
<g id="clust6" class="cluster">
<title>cluster_AppModule_providers</title>
<polygon fill="none" stroke="black" points="426,-219 426,-271 763,-271 763,-219 426,-219"/>
</g>
<g id="clust7" class="cluster">
<title>cluster_DatabaseModule</title>
<polygon fill="none" stroke="black" stroke-dasharray="1,5" points="477,-70 477,-138 945,-138 945,-70 477,-70"/>
</g>
<g id="clust10" class="cluster">
<title>cluster_DatabaseModule_exports</title>
<polygon fill="none" stroke="black" points="809,-78 809,-130 937,-130 937,-78 809,-78"/>
</g>
<g id="clust12" class="cluster">
<title>cluster_DatabaseModule_providers</title>
<polygon fill="none" stroke="black" points="485,-78 485,-130 801,-130 801,-78 485,-78"/>
</g>
<g id="clust13" class="cluster">
<title>cluster_ProductModule</title>
<polygon fill="none" stroke="black" stroke-dasharray="1,5" points="953,-70 953,-138 1603,-138 1603,-70 953,-70"/>
</g>
<g id="clust16" class="cluster">
<title>cluster_ProductModule_exports</title>
<polygon fill="none" stroke="black" points="961,-78 961,-130 1083,-130 1083,-78 961,-78"/>
</g>
<g id="clust18" class="cluster">
<title>cluster_ProductModule_providers</title>
<polygon fill="none" stroke="black" points="1091,-78 1091,-130 1595,-130 1595,-78 1091,-78"/>
</g>
<g id="clust19" class="cluster">
<title>cluster_UploadModule</title>
<polygon fill="none" stroke="black" stroke-dasharray="1,5" points="8,-211 8,-279 142,-279 142,-211 8,-211"/>
</g>
<g id="clust22" class="cluster">
<title>cluster_UploadModule_exports</title>
<polygon fill="none" stroke="black" points="16,-219 16,-271 134,-271 134,-219 16,-219"/>
</g>
<g id="clust25" class="cluster">
<title>cluster_UserModule</title>
<polygon fill="none" stroke="black" stroke-dasharray="1,5" points="150,-211 150,-279 410,-279 410,-211 150,-211"/>
</g>
<g id="clust28" class="cluster">
<title>cluster_UserModule_exports</title>
<polygon fill="none" stroke="black" points="298,-219 298,-271 402,-271 402,-219 298,-219"/>
</g>
<g id="clust30" class="cluster">
<title>cluster_UserModule_providers</title>
<polygon fill="none" stroke="black" points="158,-219 158,-271 290,-271 290,-219 158,-219"/>
</g>
<g id="clust31" class="cluster">
<title>cluster_ValidationModule</title>
<polygon fill="none" stroke="black" stroke-dasharray="1,5" points="1136,-287 1136,-355 1744,-355 1744,-287 1136,-287"/>
</g>
<g id="clust34" class="cluster">
<title>cluster_ValidationModule_exports</title>
<polygon fill="none" stroke="black" points="1330,-295 1330,-347 1736,-347 1736,-295 1330,-295"/>
</g>
<g id="clust36" class="cluster">
<title>cluster_ValidationModule_providers</title>
<polygon fill="none" stroke="black" points="1144,-295 1144,-347 1322,-347 1322,-295 1144,-295"/>
</g>
<!-- DatabaseModule -->
<g id="node1" class="node">
<title>DatabaseModule</title>
<polygon fill="#8dd3c7" stroke="black" points="1112.35,-198 1109.35,-202 1088.35,-202 1085.35,-198 1001.65,-198 1001.65,-162 1112.35,-162 1112.35,-198"/>
<text text-anchor="middle" x="1057" y="-175.8" font-family="Times,serif" font-size="14.00">DatabaseModule</text>
</g>
<!-- ValidationModule -->
<g id="node5" class="node">
<title>ValidationModule</title>
<polygon fill="#8dd3c7" stroke="black" points="1112.15,-263 1109.15,-267 1088.15,-267 1085.15,-263 993.85,-263 993.85,-227 1112.15,-227 1112.15,-263"/>
<text text-anchor="middle" x="1053" y="-240.8" font-family="Times,serif" font-size="14.00">ValidationModule</text>
</g>
<!-- DatabaseModule&#45;&gt;ValidationModule -->
<g id="edge21" class="edge">
<title>DatabaseModule&#45;&gt;ValidationModule</title>
<path fill="none" stroke="black" d="M1056.95,-198.11C1056.95,-198.11 1056.95,-216.99 1056.95,-216.99"/>
<polygon fill="black" stroke="black" points="1053.45,-216.99 1056.95,-226.99 1060.45,-216.99 1053.45,-216.99"/>
</g>
<!-- AppModule -->
<g id="node6" class="node">
<title>AppModule</title>
<polygon fill="#8dd3c7" stroke="black" points="874.66,-339 871.66,-343 850.66,-343 847.66,-339 791.34,-339 791.34,-303 874.66,-303 874.66,-339"/>
<text text-anchor="middle" x="833" y="-316.8" font-family="Times,serif" font-size="14.00">AppModule</text>
</g>
<!-- DatabaseModule&#45;&gt;AppModule -->
<g id="edge1" class="edge">
<title>DatabaseModule&#45;&gt;AppModule</title>
<path fill="none" stroke="black" d="M1001.57,-180C994.82,-180 990.24,-180 990.24,-180 990.24,-180 990.24,-315 990.24,-315 990.24,-315 884.73,-315 884.73,-315"/>
<polygon fill="black" stroke="black" points="884.73,-311.5 874.73,-315 884.73,-318.5 884.73,-311.5"/>
</g>
<!-- DatabaseService  -->
<g id="node9" class="node">
<title>DatabaseService </title>
<polygon fill="#fb8072" stroke="black" points="929.28,-122 816.72,-122 816.72,-86 929.28,-86 929.28,-122"/>
<text text-anchor="middle" x="873" y="-99.8" font-family="Times,serif" font-size="14.00">DatabaseService </text>
</g>
<!-- DatabaseModule&#45;&gt;DatabaseService  -->
<g id="edge8" class="edge">
<title>DatabaseModule&#45;&gt;DatabaseService </title>
<path fill="none" stroke="black" stroke-dasharray="5,2" d="M1056.28,-161.89C1056.28,-152.1 1056.28,-142 1056.28,-142 1056.28,-142 906,-142 906,-142 906,-142 906,-132.11 906,-132.11"/>
<polygon fill="black" stroke="black" points="909.5,-132.11 906,-122.11 902.5,-132.11 909.5,-132.11"/>
</g>
<!-- ProductModule -->
<g id="node2" class="node">
<title>ProductModule</title>
<polygon fill="#8dd3c7" stroke="black" points="975.6,-263 972.6,-267 951.6,-267 948.6,-263 872.4,-263 872.4,-227 975.6,-227 975.6,-263"/>
<text text-anchor="middle" x="924" y="-240.8" font-family="Times,serif" font-size="14.00">ProductModule</text>
</g>
<!-- ProductModule&#45;&gt;AppModule -->
<g id="edge2" class="edge">
<title>ProductModule&#45;&gt;AppModule</title>
<path fill="none" stroke="black" d="M872.29,-251C870.81,-251 869.96,-251 869.96,-251 869.96,-251 869.96,-292.97 869.96,-292.97"/>
<polygon fill="black" stroke="black" points="866.46,-292.97 869.96,-302.97 873.46,-292.97 866.46,-292.97"/>
</g>
<!-- ProductService  -->
<g id="node12" class="node">
<title>ProductService </title>
<polygon fill="#fb8072" stroke="black" points="1074.53,-122 969.47,-122 969.47,-86 1074.53,-86 1074.53,-122"/>
<text text-anchor="middle" x="1022" y="-99.8" font-family="Times,serif" font-size="14.00">ProductService </text>
</g>
<!-- ProductModule&#45;&gt;ProductService  -->
<g id="edge12" class="edge">
<title>ProductModule&#45;&gt;ProductService </title>
<path fill="none" stroke="black" stroke-dasharray="5,2" d="M975.58,-245C982.25,-245 986.81,-245 986.81,-245 986.81,-245 986.81,-132.14 986.81,-132.14"/>
<polygon fill="black" stroke="black" points="990.31,-132.14 986.81,-122.14 983.31,-132.14 990.31,-132.14"/>
</g>
<!-- UploadModule -->
<g id="node3" class="node">
<title>UploadModule</title>
<polygon fill="#8dd3c7" stroke="black" points="983.26,-198 980.26,-202 959.26,-202 956.26,-198 882.74,-198 882.74,-162 983.26,-162 983.26,-198"/>
<text text-anchor="middle" x="933" y="-175.8" font-family="Times,serif" font-size="14.00">UploadModule</text>
</g>
<!-- UploadModule&#45;&gt;ProductModule -->
<g id="edge11" class="edge">
<title>UploadModule&#45;&gt;ProductModule</title>
<path fill="none" stroke="black" d="M913.6,-198.11C913.6,-198.11 913.6,-216.99 913.6,-216.99"/>
<polygon fill="black" stroke="black" points="910.1,-216.99 913.6,-226.99 917.1,-216.99 910.1,-216.99"/>
</g>
<!-- UploadModule&#45;&gt;AppModule -->
<g id="edge3" class="edge">
<title>UploadModule&#45;&gt;AppModule</title>
<path fill="none" stroke="black" d="M882.67,-180C873.87,-180 867.48,-180 867.48,-180 867.48,-180 867.48,-292.86 867.48,-292.86"/>
<polygon fill="black" stroke="black" points="863.98,-292.86 867.48,-302.86 870.98,-292.86 863.98,-292.86"/>
</g>
<!-- UploadService  -->
<g id="node16" class="node">
<title>UploadService </title>
<polygon fill="#fb8072" stroke="black" points="126.19,-263 23.81,-263 23.81,-227 126.19,-227 126.19,-263"/>
<text text-anchor="middle" x="75" y="-240.8" font-family="Times,serif" font-size="14.00">UploadService </text>
</g>
<!-- UploadModule&#45;&gt;UploadService  -->
<g id="edge16" class="edge">
<title>UploadModule&#45;&gt;UploadService </title>
<path fill="none" stroke="black" stroke-dasharray="5,2" d="M898.11,-198.19C898.11,-201.54 898.11,-204 898.11,-204 898.11,-204 75,-204 75,-204 75,-204 75,-216.9 75,-216.9"/>
<polygon fill="black" stroke="black" points="71.5,-216.9 75,-226.9 78.5,-216.9 71.5,-216.9"/>
</g>
<!-- UserModule -->
<g id="node4" class="node">
<title>UserModule</title>
<polygon fill="#8dd3c7" stroke="black" points="864.98,-198 861.98,-202 840.98,-202 837.98,-198 779.02,-198 779.02,-162 864.98,-162 864.98,-198"/>
<text text-anchor="middle" x="822" y="-175.8" font-family="Times,serif" font-size="14.00">UserModule</text>
</g>
<!-- UserModule&#45;&gt;AppModule -->
<g id="edge4" class="edge">
<title>UserModule&#45;&gt;AppModule</title>
<path fill="none" stroke="black" d="M840.38,-198.14C840.38,-198.14 840.38,-292.93 840.38,-292.93"/>
<polygon fill="black" stroke="black" points="836.88,-292.92 840.38,-302.93 843.88,-292.93 836.88,-292.92"/>
</g>
<!-- UserService  -->
<g id="node17" class="node">
<title>UserService </title>
<polygon fill="#fb8072" stroke="black" points="393.9,-263 306.1,-263 306.1,-227 393.9,-227 393.9,-263"/>
<text text-anchor="middle" x="350" y="-240.8" font-family="Times,serif" font-size="14.00">UserService </text>
</g>
<!-- UserModule&#45;&gt;UserService  -->
<g id="edge17" class="edge">
<title>UserModule&#45;&gt;UserService </title>
<path fill="none" stroke="black" stroke-dasharray="5,2" d="M778.86,-186C662.34,-186 350,-186 350,-186 350,-186 350,-216.98 350,-216.98"/>
<polygon fill="black" stroke="black" points="346.5,-216.98 350,-226.98 353.5,-216.98 346.5,-216.98"/>
</g>
<!-- ValidationModule&#45;&gt;AppModule -->
<g id="edge5" class="edge">
<title>ValidationModule&#45;&gt;AppModule</title>
<path fill="none" stroke="black" d="M1053,-263.2C1053,-287.36 1053,-327 1053,-327 1053,-327 884.9,-327 884.9,-327"/>
<polygon fill="black" stroke="black" points="884.9,-323.5 874.9,-327 884.9,-330.5 884.9,-323.5"/>
</g>
<!-- ExceptionService  -->
<g id="node19" class="node">
<title>ExceptionService </title>
<polygon fill="#fb8072" stroke="black" points="1456.24,-339 1337.76,-339 1337.76,-303 1456.24,-303 1456.24,-339"/>
<text text-anchor="middle" x="1397" y="-316.8" font-family="Times,serif" font-size="14.00">ExceptionService </text>
</g>
<!-- ValidationModule&#45;&gt;ExceptionService  -->
<g id="edge22" class="edge">
<title>ValidationModule&#45;&gt;ExceptionService </title>
<path fill="none" stroke="black" stroke-dasharray="5,2" d="M1112.33,-253C1205.71,-253 1376.46,-253 1376.46,-253 1376.46,-253 1376.46,-292.78 1376.46,-292.78"/>
<polygon fill="black" stroke="black" points="1372.96,-292.78 1376.46,-302.78 1379.96,-292.78 1372.96,-292.78"/>
</g>
<!-- ResponseService  -->
<g id="node20" class="node">
<title>ResponseService </title>
<polygon fill="#fb8072" stroke="black" points="1727.63,-339 1612.37,-339 1612.37,-303 1727.63,-303 1727.63,-339"/>
<text text-anchor="middle" x="1670" y="-316.8" font-family="Times,serif" font-size="14.00">ResponseService </text>
</g>
<!-- ValidationModule&#45;&gt;ResponseService  -->
<g id="edge23" class="edge">
<title>ValidationModule&#45;&gt;ResponseService </title>
<path fill="none" stroke="black" stroke-dasharray="5,2" d="M1112.16,-243C1266.59,-243 1670,-243 1670,-243 1670,-243 1670,-292.91 1670,-292.91"/>
<polygon fill="black" stroke="black" points="1666.5,-292.91 1670,-302.91 1673.5,-292.91 1666.5,-292.91"/>
</g>
<!-- ValidationService  -->
<g id="node21" class="node">
<title>ValidationService </title>
<polygon fill="#fb8072" stroke="black" points="1594.08,-339 1473.92,-339 1473.92,-303 1594.08,-303 1594.08,-339"/>
<text text-anchor="middle" x="1534" y="-316.8" font-family="Times,serif" font-size="14.00">ValidationService </text>
</g>
<!-- ValidationModule&#45;&gt;ValidationService  -->
<g id="edge24" class="edge">
<title>ValidationModule&#45;&gt;ValidationService </title>
<path fill="none" stroke="black" stroke-dasharray="5,2" d="M1112.49,-248C1240.46,-248 1530.36,-248 1530.36,-248 1530.36,-248 1530.36,-292.96 1530.36,-292.96"/>
<polygon fill="black" stroke="black" points="1526.86,-292.96 1530.36,-302.96 1533.86,-292.96 1526.86,-292.96"/>
</g>
<!-- CloudinaryService -->
<g id="node7" class="node">
<title>CloudinaryService</title>
<ellipse fill="#fdb462" stroke="black" cx="672" cy="-245" rx="83.39" ry="18"/>
<text text-anchor="middle" x="672" y="-240.8" font-family="Times,serif" font-size="14.00">CloudinaryService</text>
</g>
<!-- CloudinaryService&#45;&gt;AppModule -->
<g id="edge6" class="edge">
<title>CloudinaryService&#45;&gt;AppModule</title>
<path fill="none" stroke="black" d="M751.04,-239C784.45,-239 815.78,-239 815.78,-239 815.78,-239 815.78,-292.8 815.78,-292.8"/>
<polygon fill="black" stroke="black" points="812.28,-292.8 815.78,-302.8 819.28,-292.8 812.28,-292.8"/>
</g>
<!-- UploadService -->
<g id="node8" class="node">
<title>UploadService</title>
<ellipse fill="#fdb462" stroke="black" cx="502" cy="-245" rx="68.34" ry="18"/>
<text text-anchor="middle" x="502" y="-240.8" font-family="Times,serif" font-size="14.00">UploadService</text>
</g>
<!-- UploadService&#45;&gt;AppModule -->
<g id="edge7" class="edge">
<title>UploadService&#45;&gt;AppModule</title>
<path fill="none" stroke="black" d="M502,-263.01C502,-285.49 502,-321 502,-321 502,-321 781.08,-321 781.08,-321"/>
<polygon fill="black" stroke="black" points="781.08,-324.5 791.08,-321 781.08,-317.5 781.08,-324.5"/>
</g>
<!-- DatabaseService -->
<g id="node10" class="node">
<title>DatabaseService</title>
<ellipse fill="#fdb462" stroke="black" cx="718" cy="-104" rx="75.26" ry="18"/>
<text text-anchor="middle" x="718" y="-99.8" font-family="Times,serif" font-size="14.00">DatabaseService</text>
</g>
<!-- DatabaseService&#45;&gt;DatabaseModule -->
<g id="edge9" class="edge">
<title>DatabaseService&#45;&gt;DatabaseModule</title>
<path fill="none" stroke="black" d="M786.19,-111.84C786.19,-124.73 786.19,-149 786.19,-149 786.19,-149 1038.04,-149 1038.04,-149 1038.04,-149 1038.04,-151.97 1038.04,-151.97"/>
<polygon fill="black" stroke="black" points="1034.54,-151.97 1038.04,-161.97 1041.54,-151.97 1034.54,-151.97"/>
</g>
<!-- MongoConfig -->
<g id="node11" class="node">
<title>MongoConfig</title>
<ellipse fill="#fdb462" stroke="black" cx="559" cy="-104" rx="65.52" ry="18"/>
<text text-anchor="middle" x="559" y="-99.8" font-family="Times,serif" font-size="14.00">MongoConfig</text>
</g>
<!-- MongoConfig&#45;&gt;DatabaseModule -->
<g id="edge10" class="edge">
<title>MongoConfig&#45;&gt;DatabaseModule</title>
<path fill="none" stroke="black" d="M606.66,-116.59C606.66,-131.98 606.66,-156 606.66,-156 606.66,-156 1019.81,-156 1019.81,-156 1019.81,-156 1019.81,-156.58 1019.81,-156.58"/>
<polygon fill="black" stroke="black" points="1016.31,-151.81 1019.81,-161.81 1023.31,-151.81 1016.31,-151.81"/>
</g>
<!-- ExceptionService -->
<g id="node13" class="node">
<title>ExceptionService</title>
<ellipse fill="#fdb462" stroke="black" cx="1178" cy="-104" rx="79.29" ry="18"/>
<text text-anchor="middle" x="1178" y="-99.8" font-family="Times,serif" font-size="14.00">ExceptionService</text>
</g>
<!-- ExceptionService&#45;&gt;ProductModule -->
<g id="edge13" class="edge">
<title>ExceptionService&#45;&gt;ProductModule</title>
<path fill="none" stroke="black" d="M1125.7,-117.86C1125.7,-146.59 1125.7,-210 1125.7,-210 1125.7,-210 929.08,-210 929.08,-210 929.08,-210 929.08,-216.68 929.08,-216.68"/>
<polygon fill="black" stroke="black" points="925.58,-216.68 929.08,-226.68 932.58,-216.68 925.58,-216.68"/>
</g>
<!-- ExceptionService&#45;&gt;UserModule -->
<g id="edge18" class="edge">
<title>ExceptionService&#45;&gt;UserModule</title>
<path fill="none" stroke="black" d="M1105.64,-111.37C1105.64,-118.74 1105.64,-129 1105.64,-129 1105.64,-129 832.74,-129 832.74,-129 832.74,-129 832.74,-151.88 832.74,-151.88"/>
<polygon fill="black" stroke="black" points="829.24,-151.88 832.74,-161.88 836.24,-151.88 829.24,-151.88"/>
</g>
<!-- ExceptionService&#45;&gt;ValidationModule -->
<g id="edge25" class="edge">
<title>ExceptionService&#45;&gt;ValidationModule</title>
<path fill="none" stroke="black" d="M1138.97,-119.82C1138.97,-154.26 1138.97,-233 1138.97,-233 1138.97,-233 1122.24,-233 1122.24,-233"/>
<polygon fill="black" stroke="black" points="1122.24,-229.5 1112.24,-233 1122.24,-236.5 1122.24,-229.5"/>
</g>
<!-- ProductService -->
<g id="node14" class="node">
<title>ProductService</title>
<ellipse fill="#fdb462" stroke="black" cx="1345" cy="-104" rx="70.06" ry="18"/>
<text text-anchor="middle" x="1345" y="-99.8" font-family="Times,serif" font-size="14.00">ProductService</text>
</g>
<!-- ProductService&#45;&gt;ProductModule -->
<g id="edge14" class="edge">
<title>ProductService&#45;&gt;ProductModule</title>
<path fill="none" stroke="black" d="M1294.36,-116.85C1294.36,-146.27 1294.36,-216 1294.36,-216 1294.36,-216 944.57,-216 944.57,-216 944.57,-216 944.57,-217.08 944.57,-217.08"/>
<polygon fill="black" stroke="black" points="941.07,-216.8 944.57,-226.8 948.07,-216.8 941.07,-216.8"/>
</g>
<!-- ResponseService -->
<g id="node15" class="node">
<title>ResponseService</title>
<ellipse fill="#fdb462" stroke="black" cx="1510" cy="-104" rx="77" ry="18"/>
<text text-anchor="middle" x="1510" y="-99.8" font-family="Times,serif" font-size="14.00">ResponseService</text>
</g>
<!-- ResponseService&#45;&gt;ProductModule -->
<g id="edge15" class="edge">
<title>ResponseService&#45;&gt;ProductModule</title>
<path fill="none" stroke="black" d="M1444.56,-113.66C1444.56,-141.84 1444.56,-222 1444.56,-222 1444.56,-222 960.06,-222 960.06,-222 960.06,-222 960.06,-222.49 960.06,-222.49"/>
<polygon fill="black" stroke="black" points="956.56,-216.88 960.06,-226.88 963.56,-216.88 956.56,-216.88"/>
</g>
<!-- ResponseService&#45;&gt;UserModule -->
<g id="edge19" class="edge">
<title>ResponseService&#45;&gt;UserModule</title>
<path fill="none" stroke="black" d="M1438.78,-111.1C1438.78,-120.53 1438.78,-136 1438.78,-136 1438.78,-136 848.86,-136 848.86,-136 848.86,-136 848.86,-151.85 848.86,-151.85"/>
<polygon fill="black" stroke="black" points="845.36,-151.85 848.86,-161.85 852.36,-151.85 845.36,-151.85"/>
</g>
<!-- ResponseService&#45;&gt;ValidationModule -->
<g id="edge26" class="edge">
<title>ResponseService&#45;&gt;ValidationModule</title>
<path fill="none" stroke="black" d="M1450.34,-115.42C1450.34,-147.83 1450.34,-238 1450.34,-238 1450.34,-238 1122.49,-238 1122.49,-238"/>
<polygon fill="black" stroke="black" points="1122.49,-234.5 1112.49,-238 1122.49,-241.5 1122.49,-234.5"/>
</g>
<!-- UserService -->
<g id="node18" class="node">
<title>UserService</title>
<ellipse fill="#fdb462" stroke="black" cx="224" cy="-245" rx="58.44" ry="18"/>
<text text-anchor="middle" x="224" y="-240.8" font-family="Times,serif" font-size="14.00">UserService</text>
</g>
<!-- UserService&#45;&gt;UserModule -->
<g id="edge20" class="edge">
<title>UserService&#45;&gt;UserModule</title>
<path fill="none" stroke="black" d="M224,-226.72C224,-205.68 224,-174 224,-174 224,-174 768.99,-174 768.99,-174"/>
<polygon fill="black" stroke="black" points="768.99,-177.5 778.99,-174 768.99,-170.5 768.99,-177.5"/>
</g>
<!-- ValidationService -->
<g id="node22" class="node">
<title>ValidationService</title>
<ellipse fill="#fdb462" stroke="black" cx="1233" cy="-321" rx="80.51" ry="18"/>
<text text-anchor="middle" x="1233" y="-316.8" font-family="Times,serif" font-size="14.00">ValidationService</text>
</g>
<!-- ValidationService&#45;&gt;ValidationModule -->
<g id="edge27" class="edge">
<title>ValidationService&#45;&gt;ValidationModule</title>
<path fill="none" stroke="black" d="M1204.69,-304.12C1204.69,-285.46 1204.69,-258 1204.69,-258 1204.69,-258 1122.52,-258 1122.52,-258"/>
<polygon fill="black" stroke="black" points="1122.52,-254.5 1112.52,-258 1122.52,-261.5 1122.52,-254.5"/>
</g>
</g>
</svg>
